# Apple ModelIO OBJ File: object_carobj
mtllib object_carobj.mtl
g 柱体
v 0 -0.342218 -1
v 0 0.342218 -1
v 0.19509 0.342218 -0.980785
v 0.19509 -0.342218 -0.980785
v 0.382683 0.342218 -0.92388
v 0.382683 -0.342218 -0.92388
v 0.55557 0.342218 -0.83147
v 0.55557 -0.342218 -0.83147
v 0.707107 0.342218 -0.707107
v 0.707107 -0.342218 -0.707107
v 0.83147 0.342218 -0.55557
v 0.83147 -0.342218 -0.55557
v 0.92388 0.342218 -0.382683
v 0.92388 -0.342218 -0.382683
v 0.980785 0.342218 -0.19509
v 0.980785 -0.342218 -0.19509
v 1 0.342218 0
v 1 -0.342218 0
v 0.980785 0.342218 0.19509
v 0.980785 -0.342218 0.19509
v 0.92388 0.342218 0.382683
v 0.92388 -0.342218 0.382683
v 0.83147 0.342218 0.55557
v 0.83147 -0.342218 0.55557
v 0.707107 0.342218 0.707107
v 0.707107 -0.342218 0.707107
v 0.55557 0.342218 0.83147
v 0.55557 -0.342218 0.83147
v 0.382683 0.342218 0.92388
v 0.382683 -0.342218 0.92388
v 0.19509 0.342218 0.980785
v 0.19509 -0.342218 0.980785
v 0 0.342218 1
v 0 -0.342218 1
v -0.19509 0.342218 0.980785
v -0.19509 -0.342218 0.980785
v -0.382683 0.342218 0.92388
v -0.382683 -0.342218 0.92388
v -0.55557 0.342218 0.83147
v -0.55557 -0.342218 0.83147
v -0.707107 0.342218 0.707107
v -0.707107 -0.342218 0.707107
v -0.83147 0.342218 0.55557
v -0.83147 -0.342218 0.55557
v -0.92388 0.342218 0.382683
v -0.92388 -0.342218 0.382683
v -0.980785 0.342218 0.19509
v -0.980785 -0.342218 0.19509
v -1 0.342218 0
v -1 -0.342218 0
v -0.980785 0.342218 -0.19509
v -0.980785 -0.342218 -0.19509
v -0.92388 0.342218 -0.382683
v -0.92388 -0.342218 -0.382683
v -0.83147 0.342218 -0.55557
v -0.83147 -0.342218 -0.55557
v -0.707107 0.342218 -0.707107
v -0.707107 -0.342218 -0.707107
v -0.55557 0.342218 -0.83147
v -0.55557 -0.342218 -0.83147
v -0.382683 0.342218 -0.92388
v -0.382683 -0.342218 -0.92388
v -0.19509 0.342218 -0.980785
v -0.19509 -0.342218 -0.980785
vn 0.098 -0 -0.9952
vn 0.2903 -0 -0.9569
vn 0.4714 -0 -0.8819
vn 0.6344 -0 -0.773
vn 0.773 -0 -0.6344
vn 0.8819 -0 -0.4714
vn 0.9569 -0 -0.2903
vn 0.9952 -0 -0.098
vn 0.9952 -0 0.098
vn 0.9569 -0 0.2903
vn 0.8819 -0 0.4714
vn 0.773 -0 0.6344
vn 0.6344 -0 0.773
vn 0.4714 -0 0.8819
vn 0.2903 -0 0.9569
vn 0.098 -0 0.9952
vn -0.098 -0 0.9952
vn -0.2903 -0 0.9569
vn -0.4714 -0 0.8819
vn -0.6344 -0 0.773
vn -0.773 -0 0.6344
vn -0.8819 -0 0.4714
vn -0.9569 -0 0.2903
vn -0.9952 -0 0.098
vn -0.9952 -0 -0.098
vn -0.9569 -0 -0.2903
vn -0.8819 -0 -0.4714
vn -0.773 -0 -0.6344
vn -0.6344 -0 -0.773
vn -0.4714 -0 -0.8819
vn -0 1 -0
vn -0.2903 -0 -0.9569
vn -0.098 -0 -0.9952
vn -0 -1 -0
vt -0 0
vt 0.5 -0
vt 0.5 0.03125
vt -0 0.03125
vt 0.5 0.0625
vt -0 0.0625
vt 0.5 0.09375
vt -0 0.09375
vt 0.5 0.125
vt -0 0.125
vt 0.5 0.15625
vt -0 0.15625
vt 0.5 0.1875
vt -0 0.1875
vt 0.5 0.21875
vt -0 0.21875
vt 0.5 0.25
vt -0 0.25
vt 0.5 0.28125
vt -0 0.28125
vt 0.5 0.3125
vt -0 0.3125
vt 0.5 0.34375
vt -0 0.34375
vt 0.5 0.375
vt -0 0.375
vt 0.5 0.40625
vt -0 0.40625
vt 0.5 0.4375
vt -0 0.4375
vt 0.5 0.46875
vt -0 0.46875
vt 0.5 0.5
vt -0 0.5
vt 0.5 0.53125
vt -0 0.53125
vt 0.5 0.5625
vt -0 0.5625
vt 0.5 0.59375
vt -0 0.59375
vt 0.5 0.625
vt -0 0.625
vt 0.5 0.65625
vt -0 0.65625
vt 0.5 0.6875
vt -0 0.6875
vt 0.5 0.71875
vt -0 0.71875
vt 0.5 0.75
vt -0 0.75
vt 0.5 0.78125
vt -0 0.78125
vt 0.5 0.8125
vt -0 0.8125
vt 0.5 0.84375
vt -0 0.84375
vt 0.5 0.875
vt -0 0.875
vt 0.5 0.90625
vt -0 0.90625
vt 0.5 0.9375
vt -0 0.9375
vt 0.808513 0.009179
vt 0.85198 0.027183
vt 0.891099 0.053322
vt 0.762369 -0
vt 0.71532 -0
vt 0.669176 0.009179
vt 0.625709 0.027183
vt 0.58659 0.053322
vt 0.553322 0.08659
vt 0.527183 0.125709
vt 0.509179 0.169176
vt 0.5 0.21532
vt 0.5 0.262368
vt 0.509179 0.308513
vt 0.527183 0.351979
vt 0.553322 0.391099
vt 0.58659 0.424367
vt 0.625709 0.450505
vt 0.669176 0.46851
vt 0.71532 0.477689
vt 0.762368 0.477689
vt 0.808513 0.46851
vt 0.851979 0.450505
vt 0.891099 0.424367
vt 0.924367 0.391099
vt 0.950505 0.35198
vt 0.96851 0.308513
vt 0.977689 0.262368
vt 0.977689 0.21532
vt 0.96851 0.169176
vt 0.950505 0.125709
vt 0.924367 0.08659
vt 0.5 0.96875
vt -0 0.96875
vt 0.5 1
vt -0 1
vt 0.762368 0.955377
vt 0.808513 0.946199
vt 0.851979 0.928194
vt 0.71532 0.955377
vt 0.669176 0.946199
vt 0.625709 0.928194
vt 0.58659 0.902055
vt 0.553322 0.868787
vt 0.527183 0.829668
vt 0.509179 0.786201
vt 0.5 0.740057
vt 0.5 0.693009
vt 0.509179 0.646865
vt 0.527183 0.603398
vt 0.553322 0.564279
vt 0.58659 0.53101
vt 0.625709 0.504872
vt 0.669176 0.486867
vt 0.808513 0.486867
vt 0.851979 0.504872
vt 0.891099 0.53101
vt 0.924367 0.564279
vt 0.950505 0.603398
vt 0.96851 0.646865
vt 0.977689 0.693009
vt 0.977689 0.740057
vt 0.96851 0.786201
vt 0.950505 0.829668
vt 0.924367 0.868787
vt 0.891099 0.902055
usemtl 
f 1/1/1 2/2/1 3/3/1
f 1/1/1 3/3/1 4/4/1
f 4/4/2 3/3/2 5/5/2
f 4/4/2 5/5/2 6/6/2
f 6/6/3 5/5/3 7/7/3
f 6/6/3 7/7/3 8/8/3
f 8/8/4 7/7/4 9/9/4
f 8/8/4 9/9/4 10/10/4
f 10/10/5 9/9/5 11/11/5
f 10/10/5 11/11/5 12/12/5
f 12/12/6 11/11/6 13/13/6
f 12/12/6 13/13/6 14/14/6
f 14/14/7 13/13/7 15/15/7
f 14/14/7 15/15/7 16/16/7
f 16/16/8 15/15/8 17/17/8
f 16/16/8 17/17/8 18/18/8
f 18/18/9 17/17/9 19/19/9
f 18/18/9 19/19/9 20/20/9
f 20/20/10 19/19/10 21/21/10
f 20/20/10 21/21/10 22/22/10
f 22/22/11 21/21/11 23/23/11
f 22/22/11 23/23/11 24/24/11
f 24/24/12 23/23/12 25/25/12
f 24/24/12 25/25/12 26/26/12
f 26/26/13 25/25/13 27/27/13
f 26/26/13 27/27/13 28/28/13
f 28/28/14 27/27/14 29/29/14
f 28/28/14 29/29/14 30/30/14
f 30/30/15 29/29/15 31/31/15
f 30/30/15 31/31/15 32/32/15
f 32/32/16 31/31/16 33/33/16
f 32/32/16 33/33/16 34/34/16
f 34/34/17 33/33/17 35/35/17
f 34/34/17 35/35/17 36/36/17
f 36/36/18 35/35/18 37/37/18
f 36/36/18 37/37/18 38/38/18
f 38/38/19 37/37/19 39/39/19
f 38/38/19 39/39/19 40/40/19
f 40/40/20 39/39/20 41/41/20
f 40/40/20 41/41/20 42/42/20
f 42/42/21 41/41/21 43/43/21
f 42/42/21 43/43/21 44/44/21
f 44/44/22 43/43/22 45/45/22
f 44/44/22 45/45/22 46/46/22
f 46/46/23 45/45/23 47/47/23
f 46/46/23 47/47/23 48/48/23
f 48/48/24 47/47/24 49/49/24
f 48/48/24 49/49/24 50/50/24
f 50/50/25 49/49/25 51/51/25
f 50/50/25 51/51/25 52/52/25
f 52/52/26 51/51/26 53/53/26
f 52/52/26 53/53/26 54/54/26
f 54/54/27 53/53/27 55/55/27
f 54/54/27 55/55/27 56/56/27
f 56/56/28 55/55/28 57/57/28
f 56/56/28 57/57/28 58/58/28
f 58/58/29 57/57/29 59/59/29
f 58/58/29 59/59/29 60/60/29
f 60/60/30 59/59/30 61/61/30
f 60/60/30 61/61/30 62/62/30
f 5/63/31 3/64/31 2/65/31
f 7/66/31 5/63/31 2/65/31
f 9/67/31 7/66/31 2/65/31
f 11/68/31 9/67/31 2/65/31
f 13/69/31 11/68/31 2/65/31
f 15/70/31 13/69/31 2/65/31
f 17/71/31 15/70/31 2/65/31
f 19/72/31 17/71/31 2/65/31
f 21/73/31 19/72/31 2/65/31
f 23/74/31 21/73/31 2/65/31
f 25/75/31 23/74/31 2/65/31
f 27/76/31 25/75/31 2/65/31
f 29/77/31 27/76/31 2/65/31
f 31/78/31 29/77/31 2/65/31
f 33/79/31 31/78/31 2/65/31
f 35/80/31 33/79/31 2/65/31
f 37/81/31 35/80/31 2/65/31
f 39/82/31 37/81/31 2/65/31
f 41/83/31 39/82/31 2/65/31
f 43/84/31 41/83/31 2/65/31
f 45/85/31 43/84/31 2/65/31
f 47/86/31 45/85/31 2/65/31
f 49/87/31 47/86/31 2/65/31
f 51/88/31 49/87/31 2/65/31
f 53/89/31 51/88/31 2/65/31
f 55/90/31 53/89/31 2/65/31
f 57/91/31 55/90/31 2/65/31
f 59/92/31 57/91/31 2/65/31
f 61/93/31 59/92/31 2/65/31
f 63/94/31 61/93/31 2/65/31
f 62/62/32 61/61/32 63/95/32
f 62/62/32 63/95/32 64/96/32
f 64/96/33 63/95/33 2/97/33
f 64/96/33 2/97/33 1/98/33
f 64/99/34 1/100/34 4/101/34
f 62/102/34 64/99/34 4/101/34
f 60/103/34 62/102/34 4/101/34
f 58/104/34 60/103/34 4/101/34
f 56/105/34 58/104/34 4/101/34
f 54/106/34 56/105/34 4/101/34
f 52/107/34 54/106/34 4/101/34
f 50/108/34 52/107/34 4/101/34
f 48/109/34 50/108/34 4/101/34
f 46/110/34 48/109/34 4/101/34
f 44/111/34 46/110/34 4/101/34
f 42/112/34 44/111/34 4/101/34
f 40/113/34 42/112/34 4/101/34
f 38/114/34 40/113/34 4/101/34
f 36/115/34 38/114/34 4/101/34
f 34/116/34 36/115/34 4/101/34
f 32/82/34 34/116/34 4/101/34
f 30/83/34 32/82/34 4/101/34
f 28/117/34 30/83/34 4/101/34
f 26/118/34 28/117/34 4/101/34
f 24/119/34 26/118/34 4/101/34
f 22/120/34 24/119/34 4/101/34
f 20/121/34 22/120/34 4/101/34
f 18/122/34 20/121/34 4/101/34
f 16/123/34 18/122/34 4/101/34
f 14/124/34 16/123/34 4/101/34
f 12/125/34 14/124/34 4/101/34
f 10/126/34 12/125/34 4/101/34
f 8/127/34 10/126/34 4/101/34
f 6/128/34 8/127/34 4/101/34
s off
